<svg id="水" xmlns="http://www.w3.org/2000/svg" baseProfile="full" width="100%" height="100%" viewBox="0 0 1244 1047">
  <defs>
    <style>
      .cls-1 {
        fill: #7dbff0;
      }

      .cls-1, .cls-2, .cls-3, .cls-4, .cls-5, .cls-6, .cls-8 {
        fill-rule: evenodd;
      }

      .cls-2 {
        fill: #c9e7fd;
      }

      .cls-3 {
        fill: #e6eaf0;
      }

      .cls-4 {
        fill: #d6dbe0;
      }

      .cls-5 {
        fill: #a0e5fc;
      }

      .cls-6 {
        fill: #bcc5d1;
      }

      .cls-7 {
        fill: #616ae5;
      }

      .cls-8 {
        fill: #69d798;
      }
    </style>
  </defs>
  <path id="水-2" data-name="水" class="cls-1" d="M1143,739h-76.25A42.833,42.833,0,0,1,1078,768v1a43,43,0,0,1-43,43H912.566A43,43,0,0,1,885,888H363a43,43,0,0,1-27.566-76H212a43,43,0,0,1-43-43v-1a42.845,42.845,0,0,1,11.252-29H103a43,43,0,0,1,0-86H1143A43,43,0,0,1,1143,739Z"/>
  <path id="波浪" class="cls-2" d="M352,693H514a15,15,0,0,1,0,30H352A15,15,0,0,1,352,693Zm385,14H899a15,15,0,0,1,0,30H737A15,15,0,0,1,737,707ZM636,816H771a15,15,0,0,1,0,30H636A15,15,0,0,1,636,816ZM477,770H577a15,15,0,0,1,0,30H477A15,15,0,0,1,477,770Z"/>
  <path id="右山_上" data-name="右山 上" class="cls-3" d="M968.794,424.919l-265.588-3.434L810.3,272.1s18.925-33.983,48.834,0C859.227,272.212,968.794,424.919,968.794,424.919Z"/>
  <path id="右山_下" data-name="右山 下" class="cls-4" d="M717.771,401.739s40.665,53.339,83.96-26.613c2.856-5.275,12.164-17.135,11.994-17.171-0.13-.027,19,26.6,42.837-0.858,0.253-.292,38.124,71.233,76.249,17.17,0.266-.377,14.564,21.463,14.564,21.463L1135,655l-598-.859Z"/>
  <path id="星_上_左" data-name="星 上 左" class="cls-5" d="M320.212,177.528q-12.784-43.861-56.789-59.9,45.418-12.85,62.441-55.649,12.785,43.861,56.789,59.9Q337.236,134.728,320.212,177.528Z">
	  <animate attributeType="XML" attributeName="fill"	values="#ffffff;#a0fcc3;#ffffff;" dur="4.7s" repeatCount="indefinite"/>
  </path>
  <path id="星_上_右" data-name="星 上 右" class="cls-5" d="M957.212,266.528q-12.784-43.862-56.789-59.9,45.418-12.851,62.441-55.649,12.784,43.862,56.786,59.9Q974.238,223.728,957.212,266.528Z">
	  <animate attributeType="XML" attributeName="fill"	values="#ffffff;#c9a4f7;#ffffff;" dur="5.8s" repeatCount="indefinite"/>
  </path>

  <path id="星_下" data-name="星 下" class="cls-5" d="M670.212,1041.53q-12.784-43.86-56.789-59.9,45.418-12.851,62.442-55.649,12.783,43.861,56.788,59.9Q687.236,998.728,670.212,1041.53Z">
	  <animate attributeType="XML" attributeName="fill"	values="#a0e5fc;#ffffff;#a0e5fc;" dur="5s" repeatCount="indefinite"/>
  </path>
  <path id="阴影" class="cls-6" d="M688,441L847,655H816L673,462Z"/>
  <path id="左山_上" data-name="左山 上" class="cls-3" d="M617,387l-310-4L432,209s22.089-39.584,57,0C489.111,209.126,617,387,617,387Z"/>
  <path id="左山_下" data-name="左山 下" class="cls-4" d="M324,360s47.466,62.13,98-31c3.334-6.144,14.2-19.958,14-20-0.152-.032,22.181,30.98,50-1,0.3-.34,44.5,82.973,89,20,0.311-.44,17,25,17,25L811,655l-698-1Z"/>
  <rect id="树干" class="cls-7" x="992" y="592" width="29" height="66"/>
  <path id="树叶" class="cls-8" d="M1119,546.5a64.493,64.493,0,0,1-64,64.487V611H954v-0.1a64.5,64.5,0,0,1-15.937-125.915c-0.031-.827-0.063-1.653-0.063-2.487a64.5,64.5,0,0,1,129,0c0,0.241-.01.479-0.01,0.719A64.514,64.514,0,0,1,1119,546.5Z"/>
</svg>
