<svg id="太阳" xmlns="http://www.w3.org/2000/svg" baseProfile="full" width="100%" height="100%" viewBox="0 0 6667 3750">
    <defs>
        <style>
			.cls-1 {
			fill: #fedc08;
			}

			.cls-2 {
			fill: #fdd663;
			}

			.cls-2, .cls-3, .cls-4, .cls-5, .cls-6, .cls-7 {
			fill-rule: evenodd;
			}

			.cls-3 {
			fill: #565656;
			}

			.cls-4 {
			fill: #212121;
			}

			.cls-5, .cls-8 {
			fill: #616ae5;
			}

			.cls-10, .cls-6 {
			fill: #81c995;
			}

			.cls-7 {
			fill: #fb0000;
			}

			.cls-9 {
			fill: #cb5cf9;
			}

			.cls-11 {
			fill: #ee675c;
			}
			.cls-12 {
			fill: #a0e5fc;
			fill-rule: evenodd;
			}
			.cls-13 {
			fill: #FFCC66;
			fill-rule: evenodd;
			}
		</style>
    </defs>
    <circle id="太阳-2" data-name="太阳" class="cls-1" cx="1578.5" cy="705.14" r="276.91"/>
    <path id="太阳光" class="cls-2" d="M1759.42,393.991a25.51,25.51,0,1,1-25.51,25.51A25.51,25.51,0,0,1,1759.42,393.991ZM1584.88,347a25.51,25.51,0,1,1-25.51,25.51A25.509,25.509,0,0,1,1584.88,347ZM1872.2,524.9a25.51,25.51,0,1,1-25.51,25.51A25.509,25.509,0,0,1,1872.2,524.9Zm42.29,160.443a25.51,25.51,0,1,1-25.51,25.51A25.509,25.509,0,0,1,1914.49,685.34Zm-54.37,175.883a25.51,25.51,0,1,1-25.51,25.509A25.507,25.507,0,0,1,1860.12,861.223ZM1746.67,978.7a25.509,25.509,0,1,1-25.51,25.508A25.515,25.515,0,0,1,1746.67,978.7Zm-163.13,40.278a25.51,25.51,0,1,1-25.51,25.51A25.508,25.508,0,0,1,1583.54,1018.98ZM1406.32,969.3a25.509,25.509,0,1,1-25.51,25.51A25.51,25.51,0,0,1,1406.32,969.3ZM1292.87,852.5a25.51,25.51,0,1,1-25.51,25.509A25.509,25.509,0,0,1,1292.87,852.5ZM1240.51,680.64A25.51,25.51,0,1,1,1215,706.15,25.51,25.51,0,0,1,1240.51,680.64Zm53.03-171.855a25.51,25.51,0,1,1-25.51,25.51A25.51,25.51,0,0,1,1293.54,508.785Zm122.85-121.507a25.51,25.51,0,1,1-25.51,25.51A25.51,25.51,0,0,1,1416.39,387.278Z">
        <animateTransform attributeType="XML" attributeName="transform" begin="0s" dur="35s" type="rotate" from="0 1578.5 705.14" to="360 1578.5 705.14" repeatCount="indefinite"/>
    </path>
	<path id="卫星_右" data-name="卫星 右" class="cls-3" d="M5219.93,574.722l227.22,59.968-8.93,33.841L5211,608.563Z">
        <animateMotion path="M 0 0 L 40 20 Z" dur="3s" repeatCount="indefinite"/>
    </path>
	<path id="卫星_左" data-name="卫星 左" class="cls-3" d="M4823.93,470.722l227.22,59.968-8.93,33.841L4815,504.563Z">
        <animateMotion path="M 0 0 L 40 20 Z" dur="3s" repeatCount="indefinite"/>
    </path>
	<path id="卫星-2" data-name="卫星" class="cls-4" d="M5075.6,524L5201,555.059l-14.67,59.211-125.39-31.059Z">
        <animateMotion path="M 0 0 L 40 20 Z" dur="3s" repeatCount="indefinite"/>
    </path>
	<path id="卫星_蓝" data-name="卫星 蓝" class="cls-5" d="M5027.77,611.426l20.45,21.479-255.11,217.5-19.96-26.153Z">
        <animateMotion path="M 0 0 L 40 20 Z" dur="3s" repeatCount="indefinite"/>
    </path>
	<path id="卫星_绿" data-name="卫星 绿" class="cls-6" d="M5094.57,647.3l29.19,6.682L5059,969l-37-8Z">
        <animateMotion path="M 0 0 L 40 20 Z" dur="3s" repeatCount="indefinite"/>
    </path>
	<path id="卫星_红" data-name="卫星 红" class="cls-7" d="M5172.77,658.565l30.05-9.861L5317,959l-30,12Z">
        <animateMotion path="M 0 0 L 40 20 Z" dur="3s" repeatCount="indefinite"/>
    </path>
    <rect id="蓝" class="cls-8" x="770" y="2318" width="193" height="590" rx="10" ry="10">
        <animateMotion path="M 0 0 L 0 50 Z" dur="5s" repeatCount="indefinite"/>
    </rect>
    <rect id="紫红" class="cls-9" x="5658" y="2318" width="193" height="590" rx="10" ry="10">
        <animateMotion path="M 0 0 L 0 50 Z" dur="5s" repeatCount="indefinite"/>
    </rect>
	<rect id="绿" class="cls-10" x="4765" y="2564" width="193" height="590" rx="10" ry="10">
        <animateMotion path="M 0 0 L 0 50 Z" dur="5s" repeatCount="indefinite"/>
    </rect>
    <rect id="红" class="cls-11" x="1705" y="2564" width="193" height="590" rx="10" ry="10">
        <animateMotion path="M 0 0 L 0 50 Z" dur="5s" repeatCount="indefinite"/>
    </rect>
	<path id="流星尾巴" class="cls-12" d="M2243.15,926.134l3.46,4.4L2011.47,1116.01l-3.47-4.4Zm5.69-14.705,3.46,4.4L2017.16,1101.3l-3.47-4.4Zm10.43,13.282,3.46,4.4L2027.59,1114.58l-3.47-4.4Z">
        <animateMotion path="M 50 0 L 0 40 Z" dur="4s" repeatCount="indefinite"/>
    </path>
	<path id="五角星" class="cls-12" d="M2247.02,963.426l-5.53-33.071-33.16-4.8,29.72-15.517-5.66-33.049,23.9,23.481,29.66-15.631L2271,914.873l24,23.389-33.15-4.922Z">
        <animateMotion path="M 50 0 L 0 40 Z" dur="4s" repeatCount="indefinite"/>
    </path>
    <path id="Welcome" class="cls-13" d="M3197.42,465.5q-6.345,4.15-8.67,4.15h-0.24q-7.485-16.846-17.42-25.635t-20.79-8.789a13.975,13.975,0,0,0-10.25,3.845,13.485,13.485,0,0,0-3.91,10.071q0,11.6,10.93,19.959t29.72,8.361h0.85a106.025,106.025,0,0,1,9.53,44.726q0,29.817-11.23,50.957t-25.03,21.139q-6.72,0-11.11-6.232t-4.39-16.5V474.9L3121,482.467v94.239q0,5.859-5.61,11.169a17.754,17.754,0,0,1-12.45,5.31q-11.715,0-19.23-15.137-7.5-15.135-7.51-41.626,0-57.129,29.3-94.97l-2.56-2.564Q3092.32,450,3085.24,450q-4.77,0-13.8-6.1-8.91-6.225-14.89-7.934a42.149,42.149,0,0,0-11.6-1.709q-14.16,0-22.94,7.934a26.086,26.086,0,0,0-8.79,20.264q0,9.767,5.73,15.869a18.54,18.54,0,0,0,14.04,6.1,16.436,16.436,0,0,0,11.96-4.638,16.1,16.1,0,0,0,4.77-12.085q0-5.859-2.39-9.278l-2.99.977a24.241,24.241,0,0,1,.49,3.784,11.76,11.76,0,0,1-3.63,8.545,12.1,12.1,0,0,1-8.93,3.662,13.49,13.49,0,0,1-9.98-4.272,14.28,14.28,0,0,1-4.19-10.376,17.871,17.871,0,0,1,4.65-12.451,15,15,0,0,1,11.61-5.127q6.12,0,18.71,6.714,16.14,8.546,26.17,8.544a31.63,31.63,0,0,0,9.78-1.464q-29.055,43.335-29.05,83.007,0,26.492,11.35,43.885t27.35,17.395q14.64,0,24.29-15.747,9.27,15.5,24.05,15.5,18.795,0,33.75-26t14.95-62.5a151.2,151.2,0,0,0-5.25-38.086q6.72-2.075,9.52-4.273Zm-24.78,6.958q-11.715,0-19.9-6.043t-8.18-12.512q0-6.47,5.74-6.47,11.835,0,24.78,25.025h-2.44Zm104.61,103.515a42.8,42.8,0,0,1-12.75,12.085q-7.02,4.152-12.76,4.151-11.97,0-15.75-8.79,27.96-15.379,27.96-31.25a9.737,9.737,0,0,0-3.24-7.568,11.79,11.79,0,0,0-8.24-2.93q-9.03,0-17.57,7.019t-24.42,29.48l4.03,2.808q2.31-3.415,6.71-9.033a43.281,43.281,0,0,0-.48,6.225q0,10.988,5.92,17.029t16.05,6.043q13.92,0,22.46-5.31t15.75-17.029Zm-44.55-.61a24.68,24.68,0,0,1-.98-7.446,22.432,22.432,0,0,1,4.27-13.794q4.275-5.738,10.5-5.738a6.822,6.822,0,0,1,5.43,2.32,8.76,8.76,0,0,1,2.02,5.981q0,12.086-20.26,21.973a24.436,24.436,0,0,0-.98-3.3h0Zm46.51,5.859a74.378,74.378,0,0,0,10.98-18.8V584.64q0,10.254,2.2,13.123a7.654,7.654,0,0,0,6.47,2.868q14.28,0,28.81-21.728l-3.78-3.174q-12.21,15.993-17.71,15.991a3.046,3.046,0,0,1-3.17-2.746,56.351,56.351,0,0,1-.61-10.315V543.38q19.17-29.783,27.22-46.325t8.06-26.306q0-7.325-3.6-11.719a12.163,12.163,0,0,0-9.95-4.395q-11.97,0-22.95,14.16a50.345,50.345,0,0,0-10.99,31.617v47.241q0,1.955-2.38,8a101.3,101.3,0,0,1-4.33,9.766,73.847,73.847,0,0,1-3.85,6.592q-1.89,2.87-4.21,6.164Zm23.19-88.257q0-14.89,5.31-23.559t13-8.667q8.43,0,8.42,13.672,0,8.911-5.18,21.057t-21.55,39v-41.5Zm83.99,83.008q-10.755,15.747-23.2,15.747a18.27,18.27,0,0,1-14.89-7.324,27.061,27.061,0,0,1-5.86-17.456q0-8.789,4.94-14.4t11.05-5.616q10.38,0,15.75,13.306a14.333,14.333,0,0,0,7.93-9.766q-5.73-8.789-18.43-8.789a28.543,28.543,0,0,0-15.44,4.944q-7.755,4.944-25.82,31.555l4.03,2.808,5.49-7.568-0.24.976q0,12.452,6.47,19.348t16.97,6.9q21.6,0,35.27-21.728Zm2.31,5.249a106.138,106.138,0,0,1,6.72-9.521,47.806,47.806,0,0,0-.73,8.789,20.407,20.407,0,0,0,5.92,15.075q5.91,5.92,15.8,5.921,15.27,0,26.74-11.8t11.47-26.115q0-10.031-6.04-15.658t-16.66-5.626a38.249,38.249,0,0,0-21.24,6.614q-10.14,6.615-26,29.274Zm17.7-8.3q0-11.6,5.31-18.066a17.46,17.46,0,0,1,14.23-6.47q8.415,0,13.55,5.432,5.115,5.433,5.12,15.076,0,11.109-5.49,17.822t-14.77,6.714q-17.94,0-17.95-20.508h0Zm57.99,3.052q-12.57,19.41-32.72,23.926l0.98,2.808a50.1,50.1,0,0,0,17.33-5.433q8.67-4.454,18.44-18.371Zm120.24-.244q-12.21,15.993-17.7,15.991a2.975,2.975,0,0,1-2.93-1.892q-0.855-1.891-.86-10.437V556.93q0-14.281-10.5-14.282-6.465,0-12.39,5.249-5.91,5.25-13.61,18.555,0-15.747-2.56-19.776a8.511,8.511,0,0,0-7.69-4.028q-12.33,0-26.25,23.8V541.183l-12.2,5.737a86.163,86.163,0,0,1-14.77,31.25l3.78,3.052a74.724,74.724,0,0,0,10.99-18.8v40.528l12.2-5.982V577.682q0-1.1,4.89-9.521,4.875-8.424,8.66-11.841t6.96-3.418c2.52,0,3.79,1.831,3.79,5.493v44.556l12.2-5.982V577.682q0-1.1,4.4-8.606a99.341,99.341,0,0,1,7.02-10.8,25.529,25.529,0,0,1,4.94-4.944,7.692,7.692,0,0,1,4.4-1.648q3.54,0,3.54,4.517V584.64q0,10.5,2.25,13.245a7.845,7.845,0,0,0,6.41,2.746q14.535,0,28.81-21.728Zm65.06,0.244a42.941,42.941,0,0,1-12.76,12.085q-7.02,4.152-12.75,4.151-11.97,0-15.75-8.79,27.96-15.379,27.96-31.25a9.737,9.737,0,0,0-3.24-7.568,11.807,11.807,0,0,0-8.24-2.93q-9.03,0-17.58,7.019-8.535,7.021-24.41,29.48l4.03,2.808q2.31-3.415,6.71-9.033a41.962,41.962,0,0,0-.49,6.225q0,10.988,5.92,17.029t16.05,6.043q13.92,0,22.47-5.31t15.74-17.029Zm-44.55-.61a24.367,24.367,0,0,1-.98-7.446,22.432,22.432,0,0,1,4.27-13.794q4.275-5.738,10.5-5.738a6.822,6.822,0,0,1,5.43,2.32,8.81,8.81,0,0,1,2.02,5.981q0,12.086-20.27,21.973a23.513,23.513,0,0,0-.97-3.3h0Z"/>
</svg>
