<svg id="太阳" xmlns="http://www.w3.org/2000/svg" baseProfile="full" width="100%" height="100%" viewBox="0 0 6667 3750">
	<defs>
		<style>
			.cls-1 {
			fill: #fedc08;
			}

			.cls-2 {
			fill: #ffcd7e;
			}

			.cls-10, .cls-11, .cls-12, .cls-2, .cls-7, .cls-8, .cls-9 {
			fill-rule: evenodd;
			}

			.cls-3 {
			fill: #d97ffe;
			}

			.cls-4 {
			fill: #81c995;
			}

			.cls-5 {
			fill: #626cfc;
			}

			.cls-6 {
			fill: #ff4444;
			}

			.cls-7 {
			fill: #020205;
			}

			.cls-7, .cls-8, .cls-9, .cls-10, .cls-11, .cls-12, .cls-13 {
			fill-rule: evenodd;
			}

			.cls-8 {
			fill: #43c3ff;
			}

			.cls-9 {
			fill: #ffcd7e;
			}

			.cls-10, .cls-14 {
			fill: #4de4ca;
			}

			.cls-11 {
			fill: none;
			stroke: #020205;
			stroke-width: 5px;
			}

			.cls-12 {
			fill: #a0a0a0;
			}

			.cls-13 {
			fill: #dcdcdc;
			}
		</style>
		<linearGradient id="orange_red" x1="0%" y1="0%" x2="100%" y2="0%">
			// 色彩渐变
			<stop offset="0%" style="stop-color:rgb(255,0,0);stop-opacity:1"/>
			<stop offset="16%" style="stop-color:rgb(255,165,0);stop-opacity:1"/>
			<stop offset="32%" style="stop-color:rgb(255,255,0);stop-opacity:1"/>
			<stop offset="48%" style="stop-color:rgb(0,255,0);stop-opacity:1"/>
			<stop offset="64%" style="stop-color:rgb(0,255,255);stop-opacity:1"/>
			<stop offset="80%" style="stop-color:rgb(0,0,255);stop-opacity:1"/>
			<stop offset="100%" style="stop-color:rgb(255,0,255);stop-opacity:1"/>
		</linearGradient>
		<filter id="Gaussian_Blur">
			//fegaussianblur- 高斯模糊,stdDeviation - 设置模糊程度
			<feGaussianBlur in="SourceGraphic" stdDeviation="3" />
		</filter>
	</defs>
	<circle id="太阳-2" data-name="太阳" class="cls-1" cx="1703.5" cy="719.14" r="276.91"/>
	<path id="太阳光" class="cls-2" d="M1884.42,407.991a25.51,25.51,0,1,1-25.51,25.51A25.51,25.51,0,0,1,1884.42,407.991ZM1709.88,361a25.51,25.51,0,1,1-25.51,25.51A25.509,25.509,0,0,1,1709.88,361ZM1997.2,538.9a25.51,25.51,0,1,1-25.51,25.51A25.509,25.509,0,0,1,1997.2,538.9Zm42.29,160.443a25.51,25.51,0,1,1-25.51,25.51A25.509,25.509,0,0,1,2039.49,699.34Zm-54.37,175.883a25.51,25.51,0,1,1-25.51,25.509A25.507,25.507,0,0,1,1985.12,875.223ZM1871.67,992.7a25.509,25.509,0,1,1-25.51,25.508A25.513,25.513,0,0,1,1871.67,992.7Zm-163.13,40.278a25.51,25.51,0,1,1-25.51,25.51A25.508,25.508,0,0,1,1708.54,1032.98ZM1531.32,983.3a25.509,25.509,0,1,1-25.51,25.507A25.509,25.509,0,0,1,1531.32,983.3ZM1417.87,866.5a25.51,25.51,0,1,1-25.51,25.509A25.509,25.509,0,0,1,1417.87,866.5ZM1365.51,694.64A25.51,25.51,0,1,1,1340,720.15,25.51,25.51,0,0,1,1365.51,694.64Zm53.03-171.855a25.51,25.51,0,1,1-25.51,25.51A25.51,25.51,0,0,1,1418.54,522.785Zm122.85-121.507a25.51,25.51,0,1,1-25.51,25.51A25.51,25.51,0,0,1,1541.39,401.278Z">
		<animateTransform attributeType="XML" attributeName="transform" begin="0s" dur="35s" type="rotate" from="0 1703.5 719.14" to="360 1703.5 719.14" repeatCount="indefinite"/>
	</path>
			
	<rect id="紫红" class="cls-3" x="6119" y="2323" width="193" height="590" rx="10" ry="10">
		<animateMotion path="M 0 0 L 0 50 Z" dur="5s" repeatCount="indefinite"/>
	</rect>
	<rect id="绿" class="cls-4" x="5226" y="2578" width="193" height="590" rx="10" ry="10">
		<animateMotion path="M 0 0 L 0 50 Z" dur="5s" repeatCount="indefinite"/>
	</rect>
	<rect id="蓝" class="cls-5" x="354" y="2323" width="193" height="590" rx="10" ry="10">
		<animateMotion path="M 0 0 L 0 50 Z" dur="5s" repeatCount="indefinite"/>
	</rect>
	<rect id="红" class="cls-6" x="1249" y="2578" width="193" height="590" rx="10" ry="10">
		<animateMotion path="M 0 0 L 0 50 Z" dur="5s" repeatCount="indefinite"/>
	</rect>

	<path id="下" class="cls-7" d="M4977.46,582.98l-3.57,7.311L4943.6,575.44l3.57-7.311Z">
		<animateMotion path="M 0 0 L 40 20 Z" dur="3s" repeatCount="indefinite"/>
	</path>
	<path id="上" class="cls-7" d="M5135.82,659.721l-3.28,6.467-27.8-13.136,3.27-6.467Z">
		<animateMotion path="M 0 0 L 40 20 Z" dur="3s" repeatCount="indefinite"/>
	</path>
	<path id="电池板_上" data-name="电池板 上" class="cls-8" d="M5277.94,800.8L5108.6,719.542c-2.19-1.053-2.68-4.608-1.09-7.941l47.27-98.955c1.6-3.332,4.67-5.18,6.86-4.126l169.34,81.254c2.19,1.054,2.68,4.609,1.09,7.942l-47.27,98.955C5283.2,800,5280.13,801.851,5277.94,800.8Z">
		<animateMotion path="M 0 0 L 40 20 Z" dur="3s" repeatCount="indefinite"/>
	</path>
	<path id="电池板下" class="cls-8" d="M4916.36,629.568l-169.33-81.255c-2.2-1.053-2.69-4.609-1.09-7.941l47.27-98.955c1.59-3.333,4.66-5.18,6.86-4.127l169.33,81.255c2.2,1.054,2.69,4.609,1.09,7.941l-47.27,98.955C4921.63,628.774,4918.56,630.621,4916.36,629.568Z">
		<animateMotion path="M 0 0 L 40 20 Z" dur="3s" repeatCount="indefinite"/>
	</path>
	<path id="身子" class="cls-9" d="M5061.15,739.381l-126.33-61.4a5.083,5.083,0,0,1-2.48-6.725l81.94-169.345a5.058,5.058,0,0,1,6.81-2.211l126.33,61.4a5.084,5.084,0,0,1,2.48,6.725L5067.96,737.17A5.06,5.06,0,0,1,5061.15,739.381Z">
		<animateMotion path="M 0 0 L 40 20 Z" dur="3s" repeatCount="indefinite"/>
	</path>
	<path id="绿_下" data-name="绿 下" class="cls-10" d="M5125.24,550.193l-81.2-38.767a5.426,5.426,0,0,1-2.56-7.23l14.68-30.835a5.425,5.425,0,0,1,7.23-2.56l81.2,38.768a5.435,5.435,0,0,1,2.56,7.23l-14.69,30.835A5.413,5.413,0,0,1,5125.24,550.193Z">
		<animateMotion path="M 0 0 L 40 20 Z" dur="3s" repeatCount="indefinite"/>
	</path>
	<path id="绿_上" data-name="绿 上" class="cls-10" d="M5005.07,739.136l-44.68-21.664a2.794,2.794,0,0,1-1.26-3.9l9.02-16.362a3.167,3.167,0,0,1,4.12-1.291l44.68,21.664a2.786,2.786,0,0,1,1.26,3.9l-9.01,16.361A3.18,3.18,0,0,1,5005.07,739.136Z">
		<animateMotion path="M 0 0 L 40 20 Z" dur="3s" repeatCount="indefinite"/>
	</path>
	<path id="信号_3" data-name="信号 3" class="cls-11" d="M4913.65,1004.71a95.321,95.321,0,0,1-121.3-58.988">
		<animateMotion path="M 0 0 L 40 20 Z" dur="3s" repeatCount="indefinite"/>
	</path>
	<path id="信号_2" data-name="信号 2" class="cls-11" d="M4901.76,970.354a59.024,59.024,0,0,1-75.12-36.532">
		<animateMotion path="M 0 0 L 40 20 Z" dur="3s" repeatCount="indefinite"/>
	</path>
	<path id="信号_1" data-name="信号 1" class="cls-11" d="M4886,929.892a15.7,15.7,0,0,1-19.98-9.72">
		<animateMotion path="M 0 0 L 40 20 Z" dur="3s" repeatCount="indefinite"/>
	</path>
	<path id="信号挡板" class="cls-12" d="M5046.6,920.057L4784.56,794.276a5.411,5.411,0,1,1,4.69-9.752l262.04,125.781A5.411,5.411,0,1,1,5046.6,920.057Z">
		<animateMotion path="M 0 0 L 40 20 Z" dur="3s" repeatCount="indefinite"/>
	</path>
	<path id="发射装置" class="cls-13" d="M4799.89,789.458c32.81-68.156,114.39-97.049,182.21-64.535s96.2,114.123,63.39,182.278">
		<animateMotion path="M 0 0 L 40 20 Z" dur="3s" repeatCount="indefinite"/>
	</path>
	<path id="挡板与信号球连接" class="cls-12" d="M4917.74,847.662a6.338,6.338,0,0,1,2.94,8.471l-8.52,17.643a6.334,6.334,0,1,1-11.4-5.525l8.52-17.644A6.331,6.331,0,0,1,4917.74,847.662Z">
		<animateMotion path="M 0 0 L 40 20 Z" dur="3s" repeatCount="indefinite"/>
	</path>
	<circle id="信号球" class="cls-14" cx="4896.33" cy="887.563" r="21.89">
		<animateMotion path="M 0 0 L 40 20 Z" dur="3s" repeatCount="indefinite"/>
	</circle>
</svg>
