<svg id="太阳" xmlns="http://www.w3.org/2000/svg" baseProfile="full" width="100%" height="100%" viewBox="0 0 6667 3750">
  <defs>
    <style>
      .cls-1 {
        fill: #fedc08;
      }

      .cls-2 {
        fill: #fdd663;
      }

      .cls-2, .cls-3, .cls-4, .cls-5, .cls-6, .cls-7 {
        fill-rule: evenodd;
      }

      .cls-3 {
        fill: #565656;
      }

      .cls-4 {
        fill: #212121;
      }

      .cls-5, .cls-8 {
        fill: #616ae5;
      }

      .cls-10, .cls-6 {
        fill: #81c995;
      }

      .cls-7 {
        fill: #fb0000;
      }

      .cls-9 {
        fill: #cb5cf9;
      }

      .cls-11 {
        fill: #ee675c;
      }
    </style>
  </defs>
  <circle id="太阳-2" data-name="太阳" class="cls-1" cx="1518.5" cy="705.14" r="276.91"/>
  <path id="太阳光" class="cls-2" d="M1699.42,393.991a25.51,25.51,0,1,1-25.51,25.51A25.51,25.51,0,0,1,1699.42,393.991ZM1524.88,347a25.51,25.51,0,1,1-25.51,25.51A25.509,25.509,0,0,1,1524.88,347ZM1812.2,524.9a25.51,25.51,0,1,1-25.51,25.51A25.509,25.509,0,0,1,1812.2,524.9Zm42.29,160.443a25.51,25.51,0,1,1-25.51,25.51A25.509,25.509,0,0,1,1854.49,685.34Zm-54.37,175.883a25.51,25.51,0,1,1-25.51,25.509A25.507,25.507,0,0,1,1800.12,861.223ZM1686.67,978.7a25.509,25.509,0,1,1-25.51,25.508A25.515,25.515,0,0,1,1686.67,978.7Zm-163.13,40.278a25.51,25.51,0,1,1-25.51,25.51A25.508,25.508,0,0,1,1523.54,1018.98ZM1346.32,969.3a25.509,25.509,0,1,1-25.51,25.51A25.51,25.51,0,0,1,1346.32,969.3ZM1232.87,852.5a25.51,25.51,0,1,1-25.51,25.509A25.509,25.509,0,0,1,1232.87,852.5ZM1180.51,680.64A25.51,25.51,0,1,1,1155,706.15,25.51,25.51,0,0,1,1180.51,680.64Zm53.03-171.855a25.51,25.51,0,1,1-25.51,25.51A25.51,25.51,0,0,1,1233.54,508.785Zm122.85-121.507a25.51,25.51,0,1,1-25.51,25.51A25.51,25.51,0,0,1,1356.39,387.278Z">
	<animateTransform attributeType="XML" attributeName="transform" begin="0s" dur="35s" type="rotate" from="0 1518.5 705.14" to="360 1518.5 705.14" repeatCount="indefinite"/>
  </path>
  <path id="卫星_左" data-name="卫星 左" class="cls-3" d="M4837,464l209.67,62.77,1.31,34.239L4837,498.714V464Z">
	<animateMotion path="M 0 0 L 40 20 Z" dur="5s" repeatCount="indefinite"/>
  </path>
  <path id="卫星_右" data-name="卫星 右" class="cls-3" d="M5207,566l209.67,62.77,1.31,34.239L5207,600.714V566Z">
    <animateMotion path="M 0 0 L 40 20 Z" dur="5s" repeatCount="indefinite"/>
  </path>
  <path id="卫星-2" data-name="卫星" class="cls-4" d="M5062,516l127,33,1,63-126.99-33.169Z">
    <animateMotion path="M 0 0 L 40 20 Z" dur="5s" repeatCount="indefinite"/>
  </path>
  <path id="卫星_蓝" data-name="卫星 蓝" class="cls-5" d="M5010.7,617l23.3,18.345L4812.5,886.99l-23.49-23.041Z">
    <animateMotion path="M 0 0 L 40 20 Z" dur="5s" repeatCount="indefinite"/>
  </path>
  <path id="卫星_绿" data-name="卫星 绿" class="cls-6" d="M5094.11,665.522l29.21,6.619-58.74,315.721-37.35-5.65Z">
    <animateMotion path="M 0 0 L 40 20 Z" dur="5s" repeatCount="indefinite"/>
  </path>
  <path id="卫星_红" data-name="卫星 红" class="cls-7" d="M5193.47,672.929l30.75-9,119.87,313.13L5314,989.99Z">
    <animateMotion path="M 0 0 L 40 20 Z" dur="5s" repeatCount="indefinite"/>
  </path>
  <rect id="蓝" class="cls-8" x="770" y="2318" width="193" height="590" rx="10" ry="10">
    <animateMotion path="M 0 0 L 0 40 Z" dur="5s" repeatCount="indefinite"/>
  </rect>
  <rect id="紫红" class="cls-9" x="5658" y="2319" width="193" height="590" rx="10" ry="10">
    <animateMotion path="M 0 0 L 0 40 Z" dur="5s" repeatCount="indefinite"/>
  </rect>
  <rect id="绿" class="cls-10" x="4783" y="2566" width="193" height="590" rx="10" ry="10">
    <animateMotion path="M 0 0 L 0 40 Z" dur="5s" repeatCount="indefinite"/>
  </rect>
  <rect id="红" class="cls-11" x="1705" y="2564" width="193" height="590" rx="10" ry="10">
    <animateMotion path="M 0 0 L 0 40 Z" dur="5s" repeatCount="indefinite"/>
  </rect>
</svg>
