<svg xmlns="http://www.w3.org/2000/svg" width="743" height="99" viewBox="0 0 743 99">
  <defs>
    <style>
      .cls-1 {
        fill: none;
        stroke: #616ae5;
        stroke-width: 1px;
      }

      .cls-2 {
        fill: #9d9d9d;
        fill-rule: evenodd;
      }

      .cls-3, .cls-4 {
        font-size: 24px;
      }

      .cls-3, .cls-4, .cls-5 {
        text-anchor: middle;
        font-family: "Times New Roman";
      }

      .cls-3 {
        text-transform: uppercase;
      }

      .cls-5 {
        font-size: 16px;
      }
    </style>
  </defs>
  <rect id="矩形_1" data-name="矩形 1" class="cls-1" x="233" y="33.406" width="30" height="29.875"/>
  <rect id="矩形_1_拷贝" data-name="矩形 1 拷贝" class="cls-1" x="263" y="33.406" width="30" height="29.875"/>
  <rect id="矩形_1_拷贝_2" data-name="矩形 1 拷贝 2" class="cls-1" x="293" y="33.406" width="30" height="29.875"/>
  <rect id="矩形_1_拷贝_3" data-name="矩形 1 拷贝 3" class="cls-1" x="323" y="33" width="60" height="30"/>
  <rect id="矩形_1_拷贝_5" data-name="矩形 1 拷贝 5" class="cls-1" x="383" y="33" width="60" height="30"/>
  <path id="形状_1" data-name="形状 1" class="cls-2" d="M184,17.483V14.494h42V13l6,2.989-6,2.989V17.483H184Z"/>
  <path id="形状_1_拷贝" data-name="形状 1 拷贝" class="cls-2" d="M491,75.694v3H448.919v1.5l-6.012-3,6.012-3v1.5H491Z"/>
  <text id="_1_" data-name="1 " class="cls-3" transform="translate(247.706 56.117)"><tspan x="0">1</tspan></text>
  <text id="_3" data-name="3" class="cls-3" transform="translate(277.706 56.117)"><tspan x="0">3</tspan></text>
  <text id="_4" data-name="4" class="cls-4" transform="translate(308.706 56.117)"><tspan x="0">4</tspan></text>
  <text id="You" class="cls-4" transform="translate(352.706 56.117)"><tspan x="0">You</tspan></text>
  <text id="Me" class="cls-4" transform="translate(413.706 56.117)"><tspan x="0">Me</tspan></text>
  <text id="_0" data-name="0" class="cls-5" transform="translate(247.177 21.266)"><tspan x="0">0</tspan></text>
  <text id="_1" data-name="1" class="cls-5" transform="translate(278.176 21.266)"><tspan x="0">1</tspan></text>
  <text id="_2" data-name="2" class="cls-5" transform="translate(308.176 21.266)"><tspan x="0">2</tspan></text>
  <text id="_3-2" data-name="3" class="cls-5" transform="translate(354.176 21.266)"><tspan x="0">3</tspan></text>
  <text id="_4-2" data-name="4" class="cls-5" transform="translate(413.176 21.266)"><tspan x="0">4</tspan></text>
  <text id="_-5" data-name="-5" class="cls-5" transform="translate(246.825 83)"><tspan x="0">-5</tspan></text>
  <text id="_-4" data-name="-4" class="cls-5" transform="translate(275.883 83)"><tspan x="0">-4</tspan></text>
  <text id="_-3" data-name="-3" class="cls-5" transform="translate(307.939 83)"><tspan x="0">-3</tspan></text>
  <text id="_-2" data-name="-2" class="cls-5" transform="translate(353.001 83)"><tspan x="0">-2</tspan></text>
  <text id="_-1" data-name="-1" class="cls-5" transform="translate(414.061 83)"><tspan x="0">-1</tspan></text>
</svg>
